<svg id="Ebene_1" data-name="Ebene 1" xmlns="http://www.w3.org/2000/svg" viewBox="0 0 267.43 94.83"><defs><style>.cls-1{fill:#fff;}.cls-2{fill:#111210;}.cls-3{fill:#d91622;}</style></defs><circle class="cls-1" cx="47.18" cy="47.42" r="43.8"/><path class="cls-2" d="M134.74,39.86H122.6V58.8H114V20.6a4.54,4.54,0,0,1,4.4-4.59h26.56v7.43H122.6v9.18h16.74v2.84A4.54,4.54,0,0,1,134.74,39.86Z"/><path class="cls-2" d="M153.12,16h4.34V50.94h20.89l2.77,7.86H148.71V20.6A4.54,4.54,0,0,1,153.12,16Z"/><path class="cls-2" d="M210.27,16,195.6,58.8h-8.3L172.51,16h9.69l9.12,32,8.38-28.76c.5-2.14,1.88-3.21,4.27-3.21Z"/><path class="cls-2" d="M262,16a4.37,4.37,0,0,0-4.41,3.33l-6.48,26.81L245,16h-9.31l-6.29,30.14-6.47-26.94a4.18,4.18,0,0,0-4.07-3.2H213L225.2,58.8h8.44L240.3,26l6.61,32.78h8.37L267.43,16Z"/><path class="cls-2" d="M114,64.4h4.67v1.15h-3.31v1.5h2.9v1.14h-2.9v2.75H114Z"/><path class="cls-2" d="M120.7,66.09V69a1.59,1.59,0,0,0,.1.62.67.67,0,0,0,.68.37.88.88,0,0,0,.88-.52,1.94,1.94,0,0,0,.13-.75V66.09h1.28v4.85h-1.23v-.69l-.09.13a.82.82,0,0,1-.17.2,1.67,1.67,0,0,1-.57.36,1.85,1.85,0,0,1-.65.1,1.46,1.46,0,0,1-1.45-.77,3.14,3.14,0,0,1-.2-1.26V66.09Z"/><path class="cls-2" d="M125,66.34a2.42,2.42,0,0,1,.27-1.27,2,2,0,0,1,1.84-.79,2.39,2.39,0,0,1,1.54.46,1.52,1.52,0,0,1,.58,1.26,1.67,1.67,0,0,1-.08.52,1.38,1.38,0,0,1-.59.68,1.65,1.65,0,0,1,.8.65,2,2,0,0,1,.24,1,2.56,2.56,0,0,1-.5,1.51,2,2,0,0,1-1.74.7l-.19,0a1.45,1.45,0,0,1-.28,0V70h.28a1.07,1.07,0,0,0,1-.41,1.22,1.22,0,0,0,.18-.71.92.92,0,0,0-.46-.9,2.27,2.27,0,0,0-.91-.2v-.89a1.51,1.51,0,0,0,.66-.1.7.7,0,0,0,.32-.68.76.76,0,0,0-.25-.62,1,1,0,0,0-.6-.19.7.7,0,0,0-.72.38,2.09,2.09,0,0,0-.11.8v4.46H125Z"/><path class="cls-2" d="M134.69,66.67a2.76,2.76,0,0,1,.55,1.78,3.09,3.09,0,0,1-.54,1.87,1.72,1.72,0,0,1-1.5.74,1.71,1.71,0,0,1-1-.24,1.86,1.86,0,0,1-.48-.49v.61h-1.25V64.4h1.27v2.32a2,2,0,0,1,.53-.51,1.57,1.57,0,0,1,.88-.22A1.82,1.82,0,0,1,134.69,66.67Zm-1.06,3a1.73,1.73,0,0,0,.28-1,2.32,2.32,0,0,0-.14-.85,1,1,0,0,0-1.89,0,2.31,2.31,0,0,0-.14.86,1.81,1.81,0,0,0,.28,1,1,1,0,0,0,.85.41A.85.85,0,0,0,133.63,69.62Z"/><path class="cls-2" d="M138,68a2.23,2.23,0,0,0,.51-.11.39.39,0,0,0,.27-.36.42.42,0,0,0-.21-.41A1.24,1.24,0,0,0,138,67a.79.79,0,0,0-.64.23.81.81,0,0,0-.19.44h-1.22a1.88,1.88,0,0,1,.36-1A2.07,2.07,0,0,1,138,66a3.09,3.09,0,0,1,1.42.31,1.22,1.22,0,0,1,.62,1.19V69.7c0,.16,0,.34,0,.56a.75.75,0,0,0,.07.34.58.58,0,0,0,.19.15v.19H139c0-.1-.06-.19-.08-.28s0-.18,0-.29a2.59,2.59,0,0,1-.61.48,1.79,1.79,0,0,1-.93.24,1.61,1.61,0,0,1-1.09-.38,1.32,1.32,0,0,1-.43-1.06,1.39,1.39,0,0,1,.69-1.3A3.38,3.38,0,0,1,137.6,68Zm.78.59a1.15,1.15,0,0,1-.25.12l-.34.09-.29,0a1.89,1.89,0,0,0-.58.18.56.56,0,0,0-.3.53.53.53,0,0,0,.19.47.67.67,0,0,0,.44.15,1.29,1.29,0,0,0,.76-.24,1,1,0,0,0,.37-.88Z"/><path class="cls-2" d="M142.47,70.94H141.2V64.39h1.27Z"/><path class="cls-2" d="M145,70.94h-1.27V64.39H145Z"/><path class="cls-2" d="M145.85,67.8h2.48V69h-2.48Z"/><path class="cls-2" d="M153.05,66.09V69a1.59,1.59,0,0,0,.1.62.66.66,0,0,0,.68.37.88.88,0,0,0,.88-.52,2,2,0,0,0,.12-.75V66.09h1.29v4.85h-1.23v-.69l-.09.13a.82.82,0,0,1-.17.2,1.67,1.67,0,0,1-.57.36,1.85,1.85,0,0,1-.65.1,1.46,1.46,0,0,1-1.45-.77,3,3,0,0,1-.21-1.26V66.09Z"/><path class="cls-2" d="M161.25,66.37a1.59,1.59,0,0,1,.48,1.3v3.27h-1.3V68a1.33,1.33,0,0,0-.1-.59.71.71,0,0,0-.71-.37.87.87,0,0,0-.87.55,1.7,1.7,0,0,0-.13.73v2.63h-1.26V66.1h1.22v.71a2.44,2.44,0,0,1,.46-.54,1.57,1.57,0,0,1,1-.29A1.84,1.84,0,0,1,161.25,66.37Z"/><path class="cls-2" d="M165.47,66.17a1.53,1.53,0,0,1,.56.54V64.4h1.28v6.54h-1.23v-.68a1.56,1.56,0,0,1-1.48.83,1.78,1.78,0,0,1-1.42-.69,2.63,2.63,0,0,1-.58-1.76,3,3,0,0,1,.57-2,1.84,1.84,0,0,1,1.52-.71A1.5,1.5,0,0,1,165.47,66.17Zm.32,3.45a1.83,1.83,0,0,0,.28-1,1.59,1.59,0,0,0-.45-1.27,1,1,0,0,0-.64-.23.9.9,0,0,0-.82.42,2,2,0,0,0-.26,1,1.91,1.91,0,0,0,.27,1.07.88.88,0,0,0,.8.4A.93.93,0,0,0,165.79,69.62Z"/><path class="cls-2" d="M171.09,64.39h1.37v5.37h3.27v1.18h-4.64Z"/><path class="cls-2" d="M179.71,66.19a2,2,0,0,1,.83.72,2.33,2.33,0,0,1,.39,1,6.23,6.23,0,0,1,0,1h-3.53a1.16,1.16,0,0,0,.51,1,1.28,1.28,0,0,0,.7.18,1,1,0,0,0,.7-.22,1,1,0,0,0,.26-.33h1.29a1.51,1.51,0,0,1-.47.87,2.35,2.35,0,0,1-1.82.71,2.62,2.62,0,0,1-1.7-.6,2.31,2.31,0,0,1-.74-1.94,2.66,2.66,0,0,1,.66-1.93,2.39,2.39,0,0,1,1.74-.67A2.8,2.8,0,0,1,179.71,66.19Zm-1.9,1.09a1.37,1.37,0,0,0-.34.75h2.19a1.08,1.08,0,0,0-.34-.76,1.07,1.07,0,0,0-.75-.26A1,1,0,0,0,177.81,67.28Z"/><path class="cls-2" d="M182.91,65.51h-1.28V64.35h1.28Zm-1.28.58h1.28v4.85h-1.28Z"/><path class="cls-2" d="M187,67.83a1.08,1.08,0,0,0-.18-.49.77.77,0,0,0-.66-.29.88.88,0,0,0-.88.63,2.8,2.8,0,0,0-.12.9,2.47,2.47,0,0,0,.12.85.85.85,0,0,0,.86.61.77.77,0,0,0,.63-.24,1.28,1.28,0,0,0,.23-.62h1.29a2.14,2.14,0,0,1-.42,1.09,2,2,0,0,1-1.76.83,2.08,2.08,0,0,1-1.73-.69,3.31,3.31,0,0,1,.06-3.74,2.14,2.14,0,0,1,1.68-.69,2.46,2.46,0,0,1,1.49.41,1.88,1.88,0,0,1,.69,1.44Z"/><path class="cls-2" d="M192.68,66.12a1.4,1.4,0,0,1,.6.48,1.27,1.27,0,0,1,.24.55,6.68,6.68,0,0,1,0,.94v2.85h-1.3V68a1.32,1.32,0,0,0-.13-.64.66.66,0,0,0-.65-.33.91.91,0,0,0-.76.33,1.59,1.59,0,0,0-.26,1v2.63h-1.26V64.41h1.26v2.31a1.61,1.61,0,0,1,.64-.59,1.8,1.8,0,0,1,.76-.17A2.09,2.09,0,0,1,192.68,66.12Z"/><path class="cls-2" d="M194.26,67v-.9h.67V64.79h1.26v1.35H197V67h-.78V69.6c0,.2,0,.32.07.37a.84.84,0,0,0,.46.07H197v1l-.6,0a1.59,1.59,0,0,1-1.22-.31.93.93,0,0,1-.22-.67V67Z"/><path class="cls-2" d="M199.7,68a2.23,2.23,0,0,0,.51-.11.39.39,0,0,0,.27-.36.42.42,0,0,0-.21-.41,1.24,1.24,0,0,0-.61-.12.83.83,0,0,0-.65.23.89.89,0,0,0-.18.44h-1.22a1.88,1.88,0,0,1,.36-1A2.07,2.07,0,0,1,199.7,66a3.09,3.09,0,0,1,1.42.31,1.22,1.22,0,0,1,.62,1.19V69.7c0,.16,0,.34,0,.56a.75.75,0,0,0,.07.34.58.58,0,0,0,.19.15v.19h-1.38c0-.1-.06-.19-.08-.28s0-.18,0-.29a2.59,2.59,0,0,1-.61.48,1.79,1.79,0,0,1-.93.24,1.61,1.61,0,0,1-1.09-.38,1.32,1.32,0,0,1-.43-1.06,1.39,1.39,0,0,1,.69-1.3,3.38,3.38,0,0,1,1.12-.31Zm.78.59a1.15,1.15,0,0,1-.25.12l-.34.09-.29,0A1.89,1.89,0,0,0,199,69a.56.56,0,0,0-.3.53.53.53,0,0,0,.19.47.67.67,0,0,0,.44.15,1.29,1.29,0,0,0,.76-.24,1,1,0,0,0,.37-.88Z"/><path class="cls-2" d="M202.35,67v-.9H203V64.79h1.26v1.35h.78V67h-.78V69.6c0,.2,0,.32.07.37a.86.86,0,0,0,.47.07h.24v1l-.6,0a1.6,1.6,0,0,1-1.22-.31A.93.93,0,0,1,203,70V67Z"/><path class="cls-2" d="M209.36,66.12a1.4,1.4,0,0,1,.6.48,1.27,1.27,0,0,1,.24.55,7.09,7.09,0,0,1,0,.94v2.85H209V68a1.32,1.32,0,0,0-.13-.64.67.67,0,0,0-.65-.33.9.9,0,0,0-.76.33,1.59,1.59,0,0,0-.26,1v2.63h-1.26V64.41h1.26v2.31a1.55,1.55,0,0,1,.64-.59,1.79,1.79,0,0,1,.75-.17A2.18,2.18,0,0,1,209.36,66.12Z"/><path class="cls-2" d="M212.73,70.94h-1.27V64.39h1.27Z"/><path class="cls-2" d="M217.12,66.19a2,2,0,0,1,.83.72,2.33,2.33,0,0,1,.39,1,6.23,6.23,0,0,1,0,1h-3.53a1.16,1.16,0,0,0,.51,1,1.3,1.3,0,0,0,.7.18,1,1,0,0,0,.7-.22,1,1,0,0,0,.26-.33h1.3a1.64,1.64,0,0,1-.47.87,2.37,2.37,0,0,1-1.83.71,2.62,2.62,0,0,1-1.7-.6,2.34,2.34,0,0,1-.74-1.94,2.62,2.62,0,0,1,.67-1.93A2.35,2.35,0,0,1,216,66,2.8,2.8,0,0,1,217.12,66.19Zm-1.9,1.09a1.3,1.3,0,0,0-.33.75h2.18a1.08,1.08,0,0,0-.34-.76A1.07,1.07,0,0,0,216,67,1,1,0,0,0,215.22,67.28Z"/><path class="cls-2" d="M218.53,67v-.9h.67V64.79h1.25v1.35h.79V67h-.79V69.6a.57.57,0,0,0,.08.37c.05,0,.2.07.46.07h.25v1l-.6,0a1.61,1.61,0,0,1-1.23-.31.93.93,0,0,1-.21-.67V67Z"/><path class="cls-2" d="M223.35,65.51h-1.28V64.35h1.28Zm-1.28.58h1.28v4.85h-1.28Z"/><path class="cls-2" d="M224.57,64.41h1.24v3.53l1.6-1.83H229l-1.73,1.81,1.8,3h-1.54l-1.17-2.07-.53.54v1.53h-1.24Z"/><path class="cls-2" d="M229.26,67.8h2.48V69h-2.48Z"/><path class="cls-2" d="M236.61,64.39H238l-2.24,6.55H234.5l-2.21-6.55h1.46l1.42,5Z"/><path class="cls-2" d="M241.4,66.19a2,2,0,0,1,.83.72,2.33,2.33,0,0,1,.39,1,6.23,6.23,0,0,1,0,1h-3.53a1.16,1.16,0,0,0,.51,1,1.3,1.3,0,0,0,.7.18,1,1,0,0,0,.7-.22,1,1,0,0,0,.26-.33h1.3a1.64,1.64,0,0,1-.47.87,2.37,2.37,0,0,1-1.83.71,2.62,2.62,0,0,1-1.7-.6,2.34,2.34,0,0,1-.74-1.94,2.62,2.62,0,0,1,.67-1.93,2.35,2.35,0,0,1,1.73-.67A2.8,2.8,0,0,1,241.4,66.19Zm-1.9,1.09a1.3,1.3,0,0,0-.33.75h2.18a1.08,1.08,0,0,0-.34-.76,1.07,1.07,0,0,0-.75-.26A1,1,0,0,0,239.5,67.28Z"/><path class="cls-2" d="M246,66h.11v1.29h-.36a1.07,1.07,0,0,0-1,.5,1.86,1.86,0,0,0-.15.86v2.32h-1.27V66.09h1.21v.85a2.43,2.43,0,0,1,.51-.67,1.43,1.43,0,0,1,.92-.29Z"/><path class="cls-2" d="M251,66.67a2.82,2.82,0,0,1,.54,1.78,3.16,3.16,0,0,1-.53,1.87,2,2,0,0,1-2.47.5,1.85,1.85,0,0,1-.47-.49v.61H246.8V64.4h1.26v2.32a2,2,0,0,1,.54-.51,1.56,1.56,0,0,1,.87-.22A1.84,1.84,0,0,1,251,66.67Zm-1.06,3a1.8,1.8,0,0,0,.27-1,2.34,2.34,0,0,0-.13-.85,1,1,0,0,0-1.9,0,2.32,2.32,0,0,0-.13.86,1.74,1.74,0,0,0,.28,1,.94.94,0,0,0,.84.41A.87.87,0,0,0,249.92,69.62Z"/><path class="cls-2" d="M254.32,68a2.25,2.25,0,0,0,.5-.11.38.38,0,0,0,.28-.36.42.42,0,0,0-.21-.41,1.28,1.28,0,0,0-.62-.12.8.8,0,0,0-.64.23.89.89,0,0,0-.18.44h-1.22a1.8,1.8,0,0,1,.35-1,2.09,2.09,0,0,1,1.74-.64,3.12,3.12,0,0,1,1.42.31,1.22,1.22,0,0,1,.62,1.19v2.78a.72.72,0,0,0,.08.34.42.42,0,0,0,.19.15v.19h-1.38a1.09,1.09,0,0,1-.08-.28,2.26,2.26,0,0,1,0-.29,2.35,2.35,0,0,1-.6.48,1.84,1.84,0,0,1-.93.24,1.62,1.62,0,0,1-1.1-.38,1.35,1.35,0,0,1-.43-1.06,1.38,1.38,0,0,1,.7-1.3,3.31,3.31,0,0,1,1.12-.31Zm.77.59a1.34,1.34,0,0,1-.24.12l-.34.09-.29,0a1.89,1.89,0,0,0-.58.18.56.56,0,0,0-.3.53.56.56,0,0,0,.18.47.68.68,0,0,0,.45.15,1.32,1.32,0,0,0,.76-.24,1,1,0,0,0,.36-.88Z"/><path class="cls-2" d="M261.37,66.37a1.62,1.62,0,0,1,.47,1.3v3.27h-1.3V68a1.33,1.33,0,0,0-.1-.59.7.7,0,0,0-.7-.37.87.87,0,0,0-.88.55,1.89,1.89,0,0,0-.12.73v2.63h-1.27V66.1h1.23v.71a2,2,0,0,1,.46-.54,1.54,1.54,0,0,1,1-.29A1.89,1.89,0,0,1,261.37,66.37Z"/><path class="cls-2" d="M265.59,66.17a1.58,1.58,0,0,1,.55.54V64.4h1.29v6.54H266.2v-.68a1.87,1.87,0,0,1-.62.63,1.74,1.74,0,0,1-.86.2,1.78,1.78,0,0,1-1.43-.69,2.63,2.63,0,0,1-.58-1.76,3,3,0,0,1,.57-2A1.84,1.84,0,0,1,264.8,66,1.57,1.57,0,0,1,265.59,66.17Zm.31,3.45a1.83,1.83,0,0,0,.28-1,1.59,1.59,0,0,0-.45-1.27,1,1,0,0,0-.64-.23.9.9,0,0,0-.82.42,2,2,0,0,0-.26,1,1.91,1.91,0,0,0,.27,1.07.88.88,0,0,0,.8.4A.93.93,0,0,0,265.9,69.62Z"/><path class="cls-2" d="M115.27,76.2l.86,3.75.19,1,.19-1,.74-3.77h1.44l.78,3.75.2,1,.2-1,.87-3.79h1.4l-1.85,6.55H119l-.79-3.83L118,77.65l-.23,1.27-.79,3.83h-1.27l-1.86-6.55Z"/><path class="cls-2" d="M125.86,78a2,2,0,0,1,.83.72,2.38,2.38,0,0,1,.39,1,6.23,6.23,0,0,1,0,1h-3.53a1.15,1.15,0,0,0,.51,1,1.3,1.3,0,0,0,.7.18,1,1,0,0,0,.7-.22,1,1,0,0,0,.26-.33h1.29a1.55,1.55,0,0,1-.46.87,2.39,2.39,0,0,1-1.83.71,2.62,2.62,0,0,1-1.7-.6,2.3,2.3,0,0,1-.74-1.93,2.59,2.59,0,0,1,.67-1.93,2.32,2.32,0,0,1,1.73-.68A2.8,2.8,0,0,1,125.86,78ZM124,79.1a1.31,1.31,0,0,0-.34.74h2.19a1.08,1.08,0,0,0-.34-.76,1.12,1.12,0,0,0-.75-.26A1,1,0,0,0,124,79.1Z"/><path class="cls-2" d="M128.74,81.2a.89.89,0,0,0,.18.48,1.16,1.16,0,0,0,.87.25,1.29,1.29,0,0,0,.6-.11.36.36,0,0,0,.22-.33.38.38,0,0,0-.18-.33,7.74,7.74,0,0,0-1.32-.38,2.67,2.67,0,0,1-1.17-.51,1.12,1.12,0,0,1-.34-.87,1.51,1.51,0,0,1,.53-1.15,2.14,2.14,0,0,1,1.49-.48,2.75,2.75,0,0,1,1.48.36,1.53,1.53,0,0,1,.65,1.25h-1.26a.86.86,0,0,0-.14-.39.88.88,0,0,0-.71-.26,1,1,0,0,0-.59.13.38.38,0,0,0-.18.3.32.32,0,0,0,.19.32,7.09,7.09,0,0,0,1.32.35,2.43,2.43,0,0,1,1.13.54,1.22,1.22,0,0,1,.38.91,1.48,1.48,0,0,1-.54,1.18,2.55,2.55,0,0,1-1.66.45,2.53,2.53,0,0,1-1.69-.48,1.57,1.57,0,0,1-.54-1.23Z"/><path class="cls-2" d="M132.32,78.85V78H133V76.6h1.25V78H135v.9h-.79v2.56a.57.57,0,0,0,.08.37s.2.07.46.07H135v1l-.6,0a1.61,1.61,0,0,1-1.23-.31.93.93,0,0,1-.21-.67v-3Z"/><path class="cls-2" d="M137.85,76.14l.27,0v1l-.36,0a.38.38,0,0,0-.34.11.37.37,0,0,0-.1.26V78h.83v.89h-.83v3.91h-1.26V78.84h-.71V78h.7v-.31a1.59,1.59,0,0,1,.26-1.07c.18-.29.62-.44,1.33-.44Z"/><path class="cls-2" d="M140.8,79.8a2.25,2.25,0,0,0,.5-.11.38.38,0,0,0,.28-.36.42.42,0,0,0-.21-.41,1.3,1.3,0,0,0-.62-.11.8.8,0,0,0-.64.22.89.89,0,0,0-.18.44h-1.22a1.8,1.8,0,0,1,.35-1,2.09,2.09,0,0,1,1.74-.64,3,3,0,0,1,1.41.31,1.2,1.2,0,0,1,.62,1.19v2.23c0,.15,0,.34,0,.56a.71.71,0,0,0,.08.33.42.42,0,0,0,.19.15v.19h-1.38a1.09,1.09,0,0,1-.08-.28,2.26,2.26,0,0,1,0-.29,2.4,2.4,0,0,1-.61.48,1.78,1.78,0,0,1-.92.24,1.62,1.62,0,0,1-1.1-.38,1.35,1.35,0,0,1-.43-1.06,1.38,1.38,0,0,1,.7-1.3,3.32,3.32,0,0,1,1.11-.31Zm.77.59a1.34,1.34,0,0,1-.24.12l-.34.09-.29.05a1.8,1.8,0,0,0-.58.18.56.56,0,0,0-.3.53.56.56,0,0,0,.18.47.67.67,0,0,0,.44.15,1.32,1.32,0,0,0,.77-.24,1,1,0,0,0,.36-.88Z"/><path class="cls-2" d="M145.23,82.75H144V76.2h1.26Z"/><path class="cls-2" d="M149.63,78a2,2,0,0,1,.83.72,2.38,2.38,0,0,1,.39,1,6.23,6.23,0,0,1,0,1h-3.53a1.15,1.15,0,0,0,.51,1,1.28,1.28,0,0,0,.7.18,1,1,0,0,0,.7-.22,1,1,0,0,0,.26-.33h1.29a1.51,1.51,0,0,1-.47.87,2.35,2.35,0,0,1-1.82.71,2.62,2.62,0,0,1-1.7-.6,2.3,2.3,0,0,1-.74-1.93,2.63,2.63,0,0,1,.66-1.93,2.36,2.36,0,0,1,1.74-.68A2.8,2.8,0,0,1,149.63,78Zm-1.9,1.1a1.31,1.31,0,0,0-.34.74h2.18a1,1,0,0,0-.33-.76,1.12,1.12,0,0,0-.75-.26A1,1,0,0,0,147.73,79.1Z"/><path class="cls-2" d="M155.43,78.18a1.6,1.6,0,0,1,.48,1.31v3.26h-1.3v-3a1.36,1.36,0,0,0-.1-.59.72.72,0,0,0-.7-.37.87.87,0,0,0-.88.55,1.91,1.91,0,0,0-.13.73v2.63h-1.26V77.91h1.22v.71a2.44,2.44,0,0,1,.46-.54,1.64,1.64,0,0,1,1-.29A1.84,1.84,0,0,1,155.43,78.18Z"/><path class="cls-2" d="M162.77,78a1.94,1.94,0,0,1,.84.72,2.37,2.37,0,0,1,.38,1,5.17,5.17,0,0,1,0,1h-3.52a1.16,1.16,0,0,0,.5,1,1.33,1.33,0,0,0,.7.18,1.1,1.1,0,0,0,.71-.22,1.31,1.31,0,0,0,.26-.33H164a1.51,1.51,0,0,1-.47.87,2.35,2.35,0,0,1-1.82.71,2.62,2.62,0,0,1-1.71-.6,2.33,2.33,0,0,1-.74-1.93,2.63,2.63,0,0,1,.67-1.93,2.32,2.32,0,0,1,1.73-.68A2.8,2.8,0,0,1,162.77,78Zm-1.89,1.1a1.31,1.31,0,0,0-.34.74h2.18a1,1,0,0,0-.34-.76,1.12,1.12,0,0,0-.75-.26A1,1,0,0,0,160.88,79.1Z"/><path class="cls-2" d="M164.65,81.42H166v1.33h-1.35Z"/><path class="cls-2" d="M171.14,76.2h1.42l-2.23,6.55H169l-2.21-6.55h1.46l1.42,5Z"/><path class="cls-2" d="M172.42,81.42h1.34v1.33h-1.34Z"/><path class="cls-3" d="M26.55,67.49A1.63,1.63,0,0,0,25,65.84H24v6H20.66v-8H18v9.53a1.63,1.63,0,0,0,1.65,1.58H33.35V71.85h-6.8Z"/><path class="cls-3" d="M30.52,59.34H18V60.9a1.63,1.63,0,0,0,1.65,1.58H33.35V50.85l-2.83,1Z"/><path class="cls-3" d="M18,42.65a1.4,1.4,0,0,0,1.15,1.54l10.32,3L18,50.47v3.47l15.36-5.3v-3L18,40.4Z"/><path class="cls-3" d="M18,21.83a1.57,1.57,0,0,0,1.2,1.58l9.62,2.33L18,28v3.34l10.82,2.26-9.67,2.32A1.5,1.5,0,0,0,18,37.33v2.09L33.35,35V32L21.58,29.62l11.77-2.37v-3L18,19.89Z"/><path class="cls-2" d="M80.82,13.76A47.16,47.16,0,0,0,47.42,0h-.34A47.42,47.42,0,0,0,14,81.07a47.16,47.16,0,0,0,33.4,13.76h.34A47.42,47.42,0,0,0,80.82,13.76ZM47.73,91.21h-.32A43.8,43.8,0,0,1,47.1,3.62h.32a43.8,43.8,0,0,1,.31,87.59Z"/><path class="cls-3" d="M13.78,71.83V23a41.56,41.56,0,0,0,0,48.84Z"/><path class="cls-3" d="M62.41,23.3l0,0-.22-.21A1.11,1.11,0,0,0,62.41,23.3Z"/><path class="cls-3" d="M69.27,23.42l0,0,0,0Z"/><path class="cls-3" d="M62.59,24.37h0l-.18-.08Z"/><path class="cls-3" d="M69,23.05a.18.18,0,0,1,0,.07A.18.18,0,0,0,69,23.05Z"/><path class="cls-3" d="M60,23.32s0,0,0,0,0,0,0-.05S60,23.31,60,23.32Z"/><path class="cls-3" d="M60.18,23.08l0,0,0,0Z"/><path class="cls-3" d="M60.34,23l.19-.06A1.06,1.06,0,0,1,60.34,23Z"/><path class="cls-3" d="M63.15,23.91a.36.36,0,0,1,.11.15A.39.39,0,0,0,63.15,23.91Z"/><path class="cls-3" d="M63.18,24.35l0-.06a.31.31,0,0,1-.09.07Z"/><path class="cls-3" d="M60.55,23.92l-.07,0Z"/><path class="cls-3" d="M68.6,22.66l.08.06Z"/><path class="cls-3" d="M68.08,22.34l.12.07Z"/><path class="cls-3" d="M62,24.54h0Z"/><path class="cls-3" d="M54.32,24.16a1,1,0,0,1,.31-.05A1.24,1.24,0,0,0,54.32,24.16Z"/><path class="cls-3" d="M54.22,24.91h0s0,0,0,0Z"/><path class="cls-3" d="M55.24,24.37a.17.17,0,0,0-.09-.12,1.28,1.28,0,0,0-.24-.11,1.28,1.28,0,0,1,.24.11A.17.17,0,0,1,55.24,24.37Z"/><path class="cls-3" d="M54,24.34a1,1,0,0,1,.25-.16A.63.63,0,0,0,54,24.34Z"/><path class="cls-3" d="M53.93,24.52s0,0,0,.05a.3.3,0,0,1,0-.1S53.93,24.5,53.93,24.52Z"/><path class="cls-3" d="M66.61,22.21s0,0,0-.06S66.6,22.2,66.61,22.21Z"/><path class="cls-3" d="M55.16,24.64a.21.21,0,0,0,0-.06l-.06.08Z"/><polygon class="cls-3" points="69.09 23.57 69.09 23.57 69.09 23.56 69.09 23.57"/><path class="cls-3" d="M55,24.76h0a0,0,0,0,1,0,0Z"/><path class="cls-3" d="M55.25,24.42a.31.31,0,0,1,0,.13A.31.31,0,0,0,55.25,24.42Z"/><path class="cls-3" d="M54.62,24.85l.3-.07a2,2,0,0,0-.42.1Z"/><path class="cls-3" d="M60.83,22.79l.07,0-.11,0-.26.17,0,0C60.65,22.91,60.71,22.85,60.83,22.79Z"/><path class="cls-3" d="M60.62,24a.48.48,0,0,1,.11.09l0-.06Z"/><path class="cls-3" d="M63.28,24.12a.19.19,0,0,1,0,.13A.2.2,0,0,0,63.28,24.12Z"/><path class="cls-3" d="M60.78,24.11l.09.1,0,0-.06-.07Z"/><path class="cls-3" d="M61.28,24.44l.08,0,.2,0-.15,0Z"/><path class="cls-3" d="M62.29,24.31h0a.16.16,0,0,1,.12,0A.12.12,0,0,0,62.29,24.31Z"/><path class="cls-3" d="M61.39,22.68l0,0h0Z"/><path class="cls-3" d="M61.28,24.44h0l.13,0Z"/><path class="cls-3" d="M60.68,24l0,.06h0Z"/><path class="cls-3" d="M60.57,23c.08,0,.14-.1.26-.16l.07,0h0l-.07,0C60.71,22.85,60.65,22.91,60.57,23Z"/><path class="cls-3" d="M60.83,24.16s0,0,0-.05h0l0,.05.06.07h0Z"/><path class="cls-3" d="M54,24.47h0a.3.3,0,0,0,0,.1h0A.3.3,0,0,1,54,24.47Z"/><path class="cls-3" d="M54.26,24.18h0a1,1,0,0,0-.25.16h0A1,1,0,0,1,54.26,24.18Z"/><path class="cls-3" d="M54.63,24.11h0a1,1,0,0,0-.31.05h0A1,1,0,0,1,54.63,24.11Z"/><path class="cls-3" d="M55.15,24.25a1.28,1.28,0,0,0-.24-.11,1.14,1.14,0,0,0-.28,0,1,1,0,0,0-.31.05l-.06,0a1,1,0,0,0-.25.16.52.52,0,0,0-.06.13.3.3,0,0,0,0,.1.34.34,0,0,0,.28.33s0,0,0,0a.71.71,0,0,0,.25,0,2,2,0,0,1,.42-.1l.06,0h0a0,0,0,0,0,0,0,.26.26,0,0,0,.14-.09l.06-.08,0,0a.31.31,0,0,0,0-.13s0,0,0-.05A.17.17,0,0,0,55.15,24.25Z"/><path class="cls-3" d="M66.61,22.21a.25.25,0,0,0,.08.12.61.61,0,0,0,.36.11,3.62,3.62,0,0,1,2,1.12h0a.12.12,0,0,0,.18-.15l0,0a3.1,3.1,0,0,0-.18-.26.18.18,0,0,0,0-.07,2.57,2.57,0,0,0-.33-.33l-.08-.06a2.26,2.26,0,0,0-.4-.25l-.12-.07a3.31,3.31,0,0,0-.65-.21,3.74,3.74,0,0,0-.52-.09l-.32,0c0,.06,0,.1,0,.14S66.6,22.2,66.61,22.21Z"/><path class="cls-3" d="M61.35,22.67h0Z"/><path class="cls-3" d="M63.26,24.06a.36.36,0,0,0-.11-.15c-.22-.2-.46-.37-.69-.56l0,0,0,0a1.11,1.11,0,0,1-.19-.18,1.54,1.54,0,0,0-.43-.33.92.92,0,0,0-.4-.11h-.06a.9.9,0,0,0-.43.09l-.07,0c-.12.06-.18.12-.26.16l0,0h0l-.19.06a.34.34,0,0,0-.14,0l0,0a.44.44,0,0,0-.12.18s0,0,0,.05a.37.37,0,0,0,.18.45,1.62,1.62,0,0,0,.28.11l.07,0,0,0,0,0,.06,0,0,.06s0,0,.05.05,0,0,0,.05l.06.07a1.13,1.13,0,0,0,.39.21l.13,0,.15,0a2.65,2.65,0,0,0,.38.05H62c.12,0,.19-.16.29-.22h0a.12.12,0,0,1,.12,0h0l.18.08a.52.52,0,0,0,.25.07.54.54,0,0,0,.27-.09.31.31,0,0,0,.09-.07l0,0a.19.19,0,0,0,0-.13S63.27,24.08,63.26,24.06Z"/><path class="cls-3" d="M47.12,5.85A41.32,41.32,0,0,0,37.55,7V87.8A41.57,41.57,0,1,0,47.12,5.85ZM64.65,20.17c.23-.43.43-.34.46-.06a3.25,3.25,0,0,1,0,.44.13.13,0,0,1-.13.14h-.32a.19.19,0,0,1-.16-.28Zm-2.08.47a6.25,6.25,0,0,0,1.71.3l.78.07a.26.26,0,0,1,.24.27,1.69,1.69,0,0,1,0,.23.25.25,0,0,1-.31.24c-.27-.05-.57-.12-.79-.18A9.75,9.75,0,0,1,62.43,21,.18.18,0,0,1,62.57,20.64ZM44.13,49.49a10.86,10.86,0,0,1-1.6,2.87c-.17.25-.4.46-.61-.09a15.35,15.35,0,0,1-.51-1.8,1.09,1.09,0,0,1,0-.51l2.14-1.68.12.12c.13.19.28.32.37.46A.68.68,0,0,1,44.13,49.49Zm-1-6.74a3.54,3.54,0,0,0,.34.77c.39.77,1,1,1.27,1.81.11.33-.41,1.14-.83,1-.24-.1-.25-.52-.49-.66s-.58-.09-.63.43A2.61,2.61,0,0,0,43,47.25c.07.28.11.37,0,.47L41.23,49.1a.05.05,0,0,1,0,0,24.52,24.52,0,0,1-.1-3.93c0-1.36,0-2.72,0-4.08,0-1.52.12-5.4,2.65-4.55a6.08,6.08,0,0,1,1.67.86c.57.34,2.16,1.43,3.49,2.46.41.32.67.49.69.77l-.48,1.14c-.31.76-.6,1.53-.86,2.31h0c0-.18.11-.36.17-.55-.06.19-.12.37-.17.55-.15.43-.29.49-.66.12-.7-1.12-1.27-1.64-2-2.76-.3-.5-.4-1-1-1.14a1,1,0,0,0-1.41.68A2.76,2.76,0,0,0,43.13,42.75ZM55,69.85c-.12.25-.17.49-.29.75s-.63.3-.89.34q-.66.12-1.32.18l-.62.06c-.14,0-.34.07-.46,0s0-.26.05-.35c.22-.36.31-.59.54-1a1,1,0,0,1,.29-.28c.37.08.79.2,1.14.24a6.42,6.42,0,0,0,1.58,0Zm1.86-.74c.16-.4.28-.61.43-1,.2-.55-.26-.55-.55-.35s-.42.54-.77.8a3.28,3.28,0,0,1-.65.39,5.66,5.66,0,0,1-2.21,0l-.49-.11a1.25,1.25,0,0,1,.37-.6A9.34,9.34,0,0,1,56.9,65.7c.89-.31,1.9-.24,2.75-.61a2.53,2.53,0,0,0,1.58-1.34,2.26,2.26,0,0,0-.23-2.3,5.8,5.8,0,0,1-.69-3.58,11.26,11.26,0,0,1,.4-2.53,1.3,1.3,0,0,1,.15-.43h0s0,0,0,0a12.34,12.34,0,0,0,3.43.67,6.64,6.64,0,0,1-.39,1.93,8.56,8.56,0,0,0-.3,1.21,5.48,5.48,0,0,0,0,1.34,3.83,3.83,0,0,0,0,.47,5.71,5.71,0,0,0,1.23,2.69,2.33,2.33,0,0,1,.78,2c0,.43-.8,1-1.2,1.09a24.62,24.62,0,0,1-2.61.11,3.55,3.55,0,0,0-2.35,1.55,6.49,6.49,0,0,1-2.38,1.58C56.79,69.65,56.58,69.74,56.84,69.11ZM54.59,57.82,54.68,55a1.53,1.53,0,0,1,.9.15c.4.12.37.34.43.63.17.83.34,1.55.57,2.58.06.26-.1.3-.26.23C55.74,58.33,54.88,58.17,54.59,57.82Zm6.33,16c-.06.2-.23.27-.41.33l-.77.28c-.52.18-1,.36-1.57.49-.14,0-.47.12-.54-.07s0-.22,0-.32.1-.36.14-.54a4.6,4.6,0,0,1,.2-.66.69.69,0,0,1,.1-.17c.44,0,.9.16,1.34.16a6.11,6.11,0,0,0,1.71-.2C61.07,73.39,61,73.56,60.92,73.84ZM80.11,57.3c-.53.19-1.19.15-1.41.79a4.86,4.86,0,0,1-1.56,2.64,27.47,27.47,0,0,1-2.58,1.64c-1.63,1.06-1.9,1.09-2.89,2.61-.6.92-.35,1.58.17,2.84.43,1-.43,1.23-1,1.26a9.71,9.71,0,0,0-5.11,1.75c-.8.63-1.38,1.46-2.35,2.29-.34.3-.52.29-.4-.22s.66-1.61.29-1.81-.48.1-.66.23l-.63.5a2.69,2.69,0,0,1-.82.51,5.6,5.6,0,0,1-2.12.21l-.36,0a9.4,9.4,0,0,1,2-2.3,11.12,11.12,0,0,1,3.32-1.75c1.35-.57,2.7-1.06,3.16-2a2.29,2.29,0,0,0-.49-2.73l-.66-.66a6.17,6.17,0,0,1-1.48-2.75,3.85,3.85,0,0,1,0-.91,20.42,20.42,0,0,1,.59-3c0,.3-.09.58-.14.85.05-.27.1-.55.14-.85a6.67,6.67,0,0,0,.13-1l0-.36a.22.22,0,0,0,0-.08,1.75,1.75,0,0,0-.82-1.46l-.41-.27a2.09,2.09,0,0,1,.48,1.5c-2.55-.07-4.49-1.31-6.62-2.53l0,0-.61-.35L57,51.72l-.11-.07-.25-.14-1.84-1.09c1.18.2,2.66.51,3.68,0a1.26,1.26,0,0,0,.43-1.93l-.33.72c-.26.53-.91.56-1.52.46-1.95-.32-4.56-.77-7-1.41-.54-.14-.78-.32-1.08.24s.46,1.51.85,2A3.83,3.83,0,0,0,52,51.58c.41.09.81.16,1.12.26h0a1.43,1.43,0,0,1,.33.15.8.8,0,0,1,.44.52L54,53a.2.2,0,0,1-.19.23c-.29,0-.6,0-1-.07s-.72.33-.31.6a13.29,13.29,0,0,1,1.36.84v0c0,.84,0,1.68-.08,2.52-.07,0-.16,0-.26-.11-1.2-1.2-2.12-1.78-3.82-3.32-.85-.79-1.34-1.28-1.92-1.9l-2.44-2.72a.58.58,0,0,1-.15-.5,2.11,2.11,0,0,1,.17-.63c.07-.22.13-.45.18-.68s.06-.32.08-.48a1.44,1.44,0,0,1,.09-.4.66.66,0,0,1,.34-.3,3.69,3.69,0,0,1,.92-.25,22.79,22.79,0,0,1,2.73-.3c.88,0,1.76,0,2.63,0,.66,0,1.32.06,2,.14l.31,0c.49.08.7-.67.21-.75a23.86,23.86,0,0,0-6-.26h-.08c.09-.29.19-.58.29-.86.3-.84.62-1.66,1-2.48a18.17,18.17,0,0,1,4.49-6.17,32.61,32.61,0,0,1,6.16-4,5.75,5.75,0,0,0,1-.65l.81-.66a1.86,1.86,0,0,1,1.08-.4c1.48,0,2.93-.63,3.17-2.25.08-.49-.37-.68-.45-.18a1.29,1.29,0,0,1-.1.35,2.61,2.61,0,0,1-2.46,1.3h-.85c-.38,0-.81,0-1.31-.09a2.46,2.46,0,0,1-2-.94c-.36-.56-.49-.49-1.32-.32a18.09,18.09,0,0,1-1.93.33l-.25,0a5.89,5.89,0,0,1-.84,0,3,3,0,0,1-.8-.13,1.25,1.25,0,0,1-.49-.36c0-.06-.13-.21,0-.23C54.8,27,55.61,27,55.86,27a.47.47,0,0,0,.32-.23.6.6,0,0,0-.4-.86,2.19,2.19,0,0,0-.51,0,3.46,3.46,0,0,1-.56,0,2.56,2.56,0,0,1-1.05-.24,1.65,1.65,0,0,0-.49-.06.42.42,0,0,1-.15,0c-.16-.11-.13-.44-.09-.6a1.37,1.37,0,0,1,.35-.59l.59-.56a.76.76,0,0,1,.27-.2,1.91,1.91,0,0,1,.34-.1l.62-.16L56.46,23a19.37,19.37,0,0,1,3-.48c.51,0,.66-.46,1-.8.64-.05,1.25-.08,1.8-.07l.11,0c1.07.21,2,.85,3.06.64h0l.06,0a.1.1,0,0,0,0,0,.2.2,0,0,0,0-.11A2.91,2.91,0,0,1,65.82,21c.08-.17.18-.34.31-.57.23-.4.43-.31.46-.05a5.53,5.53,0,0,1,0,.69c0,.34,0,.65,0,.91l.32,0a3.74,3.74,0,0,1,.52.09h0a.44.44,0,0,1-.35-.46h0a.45.45,0,0,1,.53-.41A4,4,0,0,1,71,24a3.06,3.06,0,0,0,1.49.68.73.73,0,0,1,.54.45c.09.24.2.58.32,1h-.06a3.87,3.87,0,0,1-1.93-.27.17.17,0,0,0-.26.17v.18a.45.45,0,0,0,.27.4,2.57,2.57,0,0,0,.91.16h.6a.71.71,0,0,1,.72.61c0,.27.08.55.1.84l-.33-.05a3.79,3.79,0,0,1-2-.5.13.13,0,0,0-.22.09v.17a.63.63,0,0,0,.36.6,2.53,2.53,0,0,0,.82.2l.78.05a.71.71,0,0,1,.66.71c0,.25,0,.5,0,.75l-.45-.1a3.71,3.71,0,0,1-1.87-.61.16.16,0,0,0-.27.09l0,.14a.54.54,0,0,0,.28.59,2.44,2.44,0,0,0,.79.25l.84.13a.71.71,0,0,1,.59.8c0,.21-.07.43-.1.65L73.1,32a4.15,4.15,0,0,1-1.83-.84.16.16,0,0,0-.28.08v.1a.7.7,0,0,0,.3.73,2.39,2.39,0,0,0,.69.29l.79.19a.73.73,0,0,1,.52.89l-.15.55-.41-.18c-.62-.25-1.34-.37-1.74-.91a.15.15,0,0,0-.27.05h0a.73.73,0,0,0,.28.85,2.08,2.08,0,0,0,.58.28c.2.08.45.15.7.24a.71.71,0,0,1,.43.93c-.06.16-.12.32-.19.48l-.31-.17c-.59-.3-1.29-.47-1.65-1a.15.15,0,0,0-.27,0l0,.1a.56.56,0,0,0,.1.59,2,2,0,0,0,.68.5l.56.24a.72.72,0,0,1,.36,1l-.2.4-.2-.12c-.56-.35-1.23-.57-1.55-1.14a.17.17,0,0,0-.31,0l0,.08a.58.58,0,0,0,.1.68,2.33,2.33,0,0,0,.61.46l.41.22a.72.72,0,0,1,.29,1l-.22.35-.07,0c-.56-.41-1.25-.69-1.5-1.34a.12.12,0,0,0-.22,0l0,.09a.81.81,0,0,0,.18.94,2.88,2.88,0,0,0,.39.3l.27.17a.73.73,0,0,1,.2,1c-.07.11-.15.21-.23.32-.49-.41-1.09-.72-1.32-1.31a.11.11,0,0,0-.2,0,.9.9,0,0,0,.18,1.11l.21.17.13.1a.72.72,0,0,1,.13,1l-.24.28a3.49,3.49,0,0,1-1-1.12.16.16,0,0,0-.28,0h0a.72.72,0,0,0,.07.88,1.88,1.88,0,0,0,.25.24h0a.73.73,0,0,1,.06,1l-.26.27a4.13,4.13,0,0,1-.75-.82.12.12,0,0,0-.23.06h0a6.81,6.81,0,0,0,.13,2.21l0,.13a4.54,4.54,0,0,0,.63,1.24c1.12,1.64,1.89,1.65,3.35,2.21l.33.13a30.36,30.36,0,0,1,4.18,1.56A7.18,7.18,0,0,1,78,52.57a5.51,5.51,0,0,1,1,3.12c0,.51.46.41.75.28a1.89,1.89,0,0,0,1.09-1.57,3.53,3.53,0,0,0-.48-2.56c-.07-.13-.15-.26-.24-.4a18.11,18.11,0,0,0-3.16-3.27,12.14,12.14,0,0,1-2.72-3.64,4.35,4.35,0,0,1,.12-4.1c.61-1.3,1.3-2.18,2.12-3.59a25.09,25.09,0,0,0,2.35-4.16A8.92,8.92,0,0,0,79.2,31c0-.15.25-1.29.48-1.05a1.83,1.83,0,0,1,.3.55c.07.15.14.3.2.45a5.12,5.12,0,0,1,.44,1.49A3,3,0,0,1,80.37,34a15.27,15.27,0,0,1-2.05,3.12,20.89,20.89,0,0,0-3.22,4.7c-.14.33.41.48.54.15a21.06,21.06,0,0,1,3.22-4.69,13.48,13.48,0,0,0,2.31-3.76c.1.29.2.59.3.91a2.57,2.57,0,0,1-.25,2.06,15,15,0,0,1-1.63,2.21,15.45,15.45,0,0,0-3.13,4.6c-.12.33.42.48.55.15a10.57,10.57,0,0,1,1.75-3c.45-.55.95-1.08,1.42-1.62.24-.28.48-.57.7-.86A12.25,12.25,0,0,0,82,36.29c.08.34.15.68.21,1a2.63,2.63,0,0,1-.53,2.06c-.25.31-.51.61-.78.89a11.71,11.71,0,0,0-3,4.5c-.12.35.42.49.54.15A8.85,8.85,0,0,1,80,42c.46-.54,1-1,1.46-1.54l.93-1.11c.52,2-.28,2.54-.28,2.54a9.51,9.51,0,0,0-3,4.4.28.28,0,0,0,.54.15,7.67,7.67,0,0,1,1.56-3l.4-.41a.22.22,0,0,1,.36.22,1.73,1.73,0,0,1-.15.49l-.21.53c-.15.34-.31.67-.46,1a8.49,8.49,0,0,0-.51,1.35,4.7,4.7,0,0,0-.15,1.49,2.84,2.84,0,0,0,.1.65,3.51,3.51,0,0,0,.26.6c.19.4.43.78.6,1.19a9.09,9.09,0,0,1,.65,2.61C82.32,54.84,81.84,56.67,80.11,57.3Z"/></svg>